<?xml version="1.0" standalone="no"?>
<!DOCTYPE svg PUBLIC "-//W3C//DTD SVG 20010904//EN"
 "http://www.w3.org/TR/2001/REC-SVG-20010904/DTD/svg10.dtd">
<svg version="1.0" xmlns="http://www.w3.org/2000/svg"
 width="500.000000pt" height="584.000000pt" viewBox="0 0 500.000000 584.000000"
 preserveAspectRatio="xMidYMid meet">

<g transform="translate(0.000000,584.000000) scale(0.100000,-0.100000)"
fill="#000000" stroke="none">
<path d="M1701 5833 l-23 -5 22 -15 c15 -10 18 -19 12 -25 -13 -13 -46 -2 -37
11 12 20 -14 20 -54 0 -23 -11 -53 -24 -66 -29 -14 -5 -28 -18 -32 -27 -9 -24
-25 -34 -38 -23 -6 5 -33 -4 -65 -21 -38 -20 -48 -29 -33 -29 12 0 24 3 26 8
6 9 156 7 182 -3 11 -4 35 -14 54 -21 32 -13 33 -13 28 7 -6 24 18 38 36 20 9
-10 7 -16 -8 -27 -17 -13 -18 -16 -5 -24 15 -10 20 -11 55 -14 11 0 21 -10 23
-21 6 -30 21 -43 42 -38 16 4 20 0 20 -20 0 -45 9 -57 41 -50 22 4 29 2 29
-11 0 -9 -8 -16 -20 -16 -24 0 -24 0 -3 -45 19 -40 54 -49 50 -13 -1 14 4 23
16 26 12 2 17 -3 17 -19 0 -20 4 -21 42 -16 23 3 47 13 54 21 14 20 30 20 37
2 5 -11 14 -12 44 -5 21 6 70 12 108 15 116 9 141 16 137 43 -3 18 1 22 15 19
11 -2 17 -11 15 -22 -3 -17 1 -18 39 -13 24 3 49 13 56 23 11 15 16 16 37 5
18 -10 36 -11 73 -3 26 5 66 11 88 11 84 2 89 6 110 79 11 37 20 78 20 92 0
18 6 26 22 28 12 2 26 15 32 30 6 15 22 32 34 37 12 6 28 23 35 38 9 17 19 26
28 23 7 -3 26 1 41 9 25 13 -51 15 -642 14 -369 -1 -681 -4 -694 -6z m139 -39
c0 -8 -7 -14 -15 -14 -15 0 -21 21 -9 33 10 9 24 -2 24 -19z m131 -7 c-5 -5
-17 -7 -26 -3 -14 5 -15 9 -5 21 10 12 16 13 27 4 9 -8 10 -16 4 -22z m127 10
c2 -10 -3 -17 -12 -17 -10 0 -16 9 -16 21 0 24 23 21 28 -4z m132 -3 c0 -14
-21 -19 -33 -7 -9 9 13 34 24 27 5 -3 9 -12 9 -20z m126 15 c8 -14 -11 -33
-25 -25 -11 7 -4 36 9 36 5 0 12 -5 16 -11z m132 -12 c2 -10 -3 -17 -12 -17
-18 0 -29 16 -21 31 9 14 29 6 33 -14z m124 -9 c-9 -9 -15 -9 -24 0 -10 10
-10 15 2 22 20 12 38 -6 22 -22z m134 21 c10 -17 -13 -36 -27 -22 -12 12 -4
33 11 33 5 0 12 -5 16 -11z m130 0 c10 -17 -13 -36 -27 -22 -12 12 -4 33 11
33 5 0 12 -5 16 -11z m-1231 -69 c3 -5 4 -14 0 -20 -8 -13 -35 -1 -35 16 0 16
26 19 35 4z m135 -3 c0 -19 -10 -27 -26 -20 -21 8 -17 33 6 33 11 0 20 -6 20
-13z m126 2 c7 -12 -15 -31 -28 -23 -4 3 -8 12 -8 20 0 17 26 19 36 3z m130 0
c7 -12 -15 -31 -28 -23 -4 3 -8 12 -8 20 0 17 26 19 36 3z m130 0 c7 -12 -15
-31 -28 -23 -4 3 -8 12 -8 20 0 17 26 19 36 3z m130 0 c7 -12 -15 -31 -28 -23
-4 3 -8 12 -8 20 0 17 26 19 36 3z m127 4 c9 -9 -13 -34 -24 -27 -14 8 -11 34
4 34 8 0 17 -3 20 -7z m130 0 c9 -9 -13 -34 -24 -27 -14 8 -11 34 4 34 8 0 17
-3 20 -7z m133 -4 c7 -12 -15 -31 -28 -23 -4 3 -8 12 -8 20 0 17 26 19 36 3z
m122 -6 c-4 -22 -22 -20 -26 1 -2 10 3 16 13 16 10 0 15 -7 13 -17z m-968 -63
c0 -11 -7 -20 -15 -20 -8 0 -15 9 -15 20 0 11 7 20 15 20 8 0 15 -9 15 -20z
m128 -3 c2 -10 -3 -17 -12 -17 -18 0 -29 16 -21 31 9 14 29 6 33 -14z m130 0
c2 -10 -3 -17 -12 -17 -10 0 -16 9 -16 21 0 24 23 21 28 -4z m130 0 c2 -10 -3
-17 -12 -17 -18 0 -29 16 -21 31 9 14 29 6 33 -14z m130 0 c2 -10 -3 -17 -12
-17 -18 0 -29 16 -21 31 9 14 29 6 33 -14z m130 0 c2 -10 -3 -17 -12 -17 -18
0 -29 16 -21 31 9 14 29 6 33 -14z m130 0 c2 -10 -3 -17 -12 -17 -18 0 -29 16
-21 31 9 14 29 6 33 -14z m128 12 c10 -17 -13 -36 -27 -22 -12 12 -4 33 11 33
5 0 12 -5 16 -11z m-838 -76 c2 -8 -5 -13 -17 -13 -12 0 -21 6 -21 16 0 18 31
15 38 -3z m130 0 c2 -8 -5 -13 -17 -13 -12 0 -21 6 -21 16 0 18 31 15 38 -3z
m130 0 c2 -8 -5 -13 -17 -13 -12 0 -21 6 -21 16 0 18 31 15 38 -3z m130 0 c2
-8 -5 -13 -17 -13 -12 0 -21 6 -21 16 0 18 31 15 38 -3z m125 2 c1 -5 -6 -11
-15 -13 -11 -2 -18 3 -18 13 0 17 30 18 33 0z m130 8 c9 -9 -13 -34 -24 -27
-14 8 -11 34 4 34 8 0 17 -3 20 -7z m135 -10 c2 -8 -5 -13 -17 -13 -12 0 -21
6 -21 16 0 18 31 15 38 -3z m120 0 c-4 -22 -22 -20 -26 1 -2 10 3 16 13 16 10
0 15 -7 13 -17z m-838 -69 c0 -17 -26 -19 -36 -3 -7 12 15 31 28 23 4 -3 8
-12 8 -20z m128 3 c2 -10 -3 -17 -12 -17 -10 0 -16 9 -16 21 0 24 23 21 28 -4z
m132 -3 c0 -17 -26 -19 -36 -3 -7 12 15 31 28 23 4 -3 8 -12 8 -20z m126 15
c10 -17 -13 -36 -27 -22 -12 12 -4 33 11 33 5 0 12 -5 16 -11z m132 -12 c2
-10 -3 -17 -12 -17 -18 0 -29 16 -21 31 9 14 29 6 33 -14z m128 12 c10 -17
-13 -36 -27 -22 -12 12 -4 33 11 33 5 0 12 -5 16 -11z m132 -12 c2 -10 -3 -17
-12 -17 -18 0 -29 16 -21 31 9 14 29 6 33 -14z m-710 -59 c-7 -19 -38 -22 -38
-4 0 10 9 16 21 16 12 0 19 -5 17 -12z m125 -3 c1 -5 -6 -11 -15 -13 -11 -2
-18 3 -18 13 0 17 30 18 33 0z m135 3 c-7 -19 -38 -22 -38 -4 0 10 9 16 21 16
12 0 19 -5 17 -12z"/>
<path d="M3433 5810 c70 -44 131 -114 163 -186 16 -35 34 -64 41 -64 21 0 27
-23 10 -35 -22 -16 -22 -73 1 -98 16 -19 16 -20 -5 -34 -13 -9 -23 -24 -23
-34 0 -10 -7 -34 -16 -53 -9 -19 -14 -41 -11 -49 8 -22 150 -112 155 -98 7 21
32 11 32 -12 0 -29 18 -47 47 -47 14 0 23 -6 23 -15 0 -8 12 -22 28 -32 15
-10 38 -27 52 -39 93 -81 150 -128 329 -272 59 -47 65 -50 77 -34 10 13 15 14
25 5 10 -10 9 -15 -1 -28 -11 -13 -10 -18 6 -30 32 -24 109 3 99 35 -8 25 15
37 31 15 11 -15 17 -16 46 -5 18 7 60 15 93 19 55 5 78 21 39 27 -26 4 -30 15
-11 29 16 12 16 15 -4 71 -12 33 -33 69 -46 82 -14 12 -23 29 -20 36 6 14 -46
130 -62 140 -6 4 -29 40 -52 81 -29 50 -49 75 -63 77 -13 2 -21 11 -22 24 -2
32 -13 44 -41 44 -21 0 -24 4 -20 22 8 30 -10 49 -39 42 -21 -5 -24 -3 -24 23
0 37 -17 55 -41 43 -20 -11 -35 2 -24 20 10 16 -14 40 -41 40 -15 0 -24 7 -26
21 -2 11 -16 28 -33 37 -16 9 -34 22 -40 28 -17 19 -101 73 -155 100 -38 19
-54 23 -64 15 -14 -12 -29 -1 -37 27 -4 10 -127 72 -144 72 -1 0 -5 -9 -8 -20
-6 -23 -37 -27 -37 -5 0 9 8 19 17 22 33 13 -20 22 -136 22 l-115 1 47 -30z
m90 -5 c8 -18 -11 -31 -25 -17 -11 11 -3 32 12 32 4 0 10 -7 13 -15z m67 -68
c0 -8 -3 -17 -7 -20 -9 -9 -34 13 -27 24 8 14 34 11 34 -4z m130 -1 c0 -8 -4
-17 -8 -20 -13 -8 -35 11 -28 23 10 16 36 14 36 -3z m-65 -67 c0 -7 -8 -15
-17 -17 -18 -3 -25 18 -11 32 10 10 28 1 28 -15z m125 1 c0 -11 -7 -20 -15
-20 -15 0 -21 21 -8 33 12 13 23 7 23 -13z m135 -1 c0 -7 -8 -15 -17 -17 -18
-3 -25 18 -11 32 10 10 28 1 28 -15z m-195 -63 c0 -8 -4 -17 -8 -20 -13 -8
-35 11 -28 23 10 16 36 14 36 -3z m130 -1 c0 -8 -9 -15 -20 -15 -20 0 -26 11
-13 23 12 13 33 7 33 -8z m130 0 c0 -8 -9 -15 -20 -15 -20 0 -26 11 -13 23 12
13 33 7 33 -8z m-200 -65 c0 -11 -7 -20 -15 -20 -15 0 -21 21 -8 33 12 13 23
7 23 -13z m135 -1 c0 -7 -8 -15 -17 -17 -18 -3 -25 18 -11 32 10 10 28 1 28
-15z m125 -5 c0 -8 -7 -14 -15 -14 -15 0 -21 21 -9 33 10 9 24 -2 24 -19z
m-320 -57 c0 -8 -3 -17 -7 -20 -9 -9 -34 13 -27 24 8 14 34 11 34 -4z m130 -2
c0 -8 -6 -15 -14 -15 -17 0 -28 14 -19 24 12 12 33 6 33 -9z m130 0 c0 -8 -9
-15 -20 -15 -11 0 -20 7 -20 15 0 8 9 15 20 15 11 0 20 -7 20 -15z m130 2 c0
-21 -12 -28 -27 -16 -19 16 -16 29 7 29 11 0 20 -6 20 -13z m-330 -67 c0 -11
-7 -20 -15 -20 -8 0 -15 9 -15 20 0 11 7 20 15 20 8 0 15 -9 15 -20z m135 0
c0 -8 -8 -16 -17 -18 -13 -2 -18 3 -18 18 0 15 5 20 18 18 9 -2 17 -10 17 -18z
m125 0 c0 -11 -7 -20 -15 -20 -8 0 -15 9 -15 20 0 11 7 20 15 20 8 0 15 -9 15
-20z m133 5 c7 -17 -8 -29 -28 -21 -17 6 -9 36 10 36 7 0 15 -7 18 -15z m-453
-70 c0 -8 -6 -15 -14 -15 -17 0 -28 14 -19 24 12 12 33 6 33 -9z m130 0 c0 -8
-9 -15 -20 -15 -20 0 -26 11 -13 23 12 13 33 7 33 -8z m130 0 c0 -8 -9 -15
-20 -15 -11 0 -20 7 -20 15 0 8 9 15 20 15 11 0 20 -7 20 -15z m130 0 c0 -8
-9 -15 -20 -15 -11 0 -20 7 -20 15 0 8 9 15 20 15 11 0 20 -7 20 -15z m130 0
c0 -8 -9 -15 -20 -15 -11 0 -20 7 -20 15 0 8 9 15 20 15 11 0 20 -7 20 -15z
m-585 -65 c0 -22 -29 -18 -33 3 -3 14 1 18 15 15 10 -2 18 -10 18 -18z m125 0
c0 -11 -4 -20 -9 -20 -14 0 -23 18 -16 30 10 17 25 11 25 -10z m136 9 c11 -19
-13 -34 -31 -19 -13 11 -13 15 -3 21 18 12 26 11 34 -2z m122 -6 c-4 -22 -22
-20 -26 1 -2 10 3 16 13 16 10 0 15 -7 13 -17z m138 6 c3 -6 1 -16 -4 -21 -13
-13 -45 8 -36 23 7 12 31 11 40 -2z m119 -7 c0 -18 -20 -15 -23 4 -3 10 1 15
10 12 7 -3 13 -10 13 -16z m-575 -68 c0 -14 -21 -19 -33 -7 -9 9 13 34 24 27
5 -3 9 -12 9 -20z m127 11 c7 -20 -2 -29 -21 -22 -9 4 -13 13 -10 22 8 19 23
19 31 0z m131 -8 c2 -10 -3 -17 -12 -17 -18 0 -29 16 -21 31 9 14 29 6 33 -14z
m130 0 c2 -10 -3 -17 -12 -17 -18 0 -29 16 -21 31 9 14 29 6 33 -14z m130 0
c2 -10 -3 -17 -12 -17 -18 0 -29 16 -21 31 9 14 29 6 33 -14z m126 8 c3 -9 -1
-18 -10 -22 -19 -7 -28 2 -21 22 8 19 23 19 31 0z m-449 -75 c0 -22 -29 -18
-33 3 -3 14 1 18 15 15 10 -2 18 -10 18 -18z m125 0 c0 -11 -7 -20 -15 -20 -8
0 -15 9 -15 20 0 11 7 20 15 20 8 0 15 -9 15 -20z m135 0 c0 -8 -8 -16 -17
-18 -13 -2 -18 3 -18 18 0 15 5 20 18 18 9 -2 17 -10 17 -18z m125 0 c0 -11
-7 -20 -15 -20 -8 0 -15 9 -15 20 0 11 7 20 15 20 8 0 15 -9 15 -20z m130 0
c0 -21 -24 -28 -35 -10 -8 14 3 30 21 30 8 0 14 -9 14 -20z m-450 -66 c0 -17
-26 -19 -36 -3 -7 12 15 31 28 23 4 -3 8 -12 8 -20z m122 -6 c-9 -9 -15 -9
-24 0 -10 10 -10 15 2 22 20 12 38 -6 22 -22z m138 6 c0 -16 -26 -19 -35 -4
-3 6 -4 14 0 20 8 13 35 1 35 -16z m260 6 c0 -5 -5 -12 -11 -16 -14 -8 -33 11
-25 25 7 11 36 4 36 -9z m-132 -2 c-7 -19 -38 -22 -38 -4 0 10 9 16 21 16 12
0 19 -5 17 -12z m-330 -65 c-4 -22 -22 -20 -26 1 -2 10 3 16 13 16 10 0 15 -7
13 -17z m138 6 c8 -14 -14 -29 -32 -22 -16 6 -7 33 11 33 8 0 17 -5 21 -11z
m122 -6 c-4 -22 -22 -20 -26 1 -2 10 3 16 13 16 10 0 15 -7 13 -17z m135 3 c3
-8 0 -17 -7 -19 -18 -7 -40 8 -32 22 10 16 33 14 39 -3z m125 -3 c-4 -22 -22
-20 -26 1 -2 10 3 16 13 16 10 0 15 -7 13 -17z m-452 -54 c10 -17 -13 -36 -27
-22 -12 12 -4 33 11 33 5 0 12 -5 16 -11z m132 -12 c2 -10 -3 -17 -12 -17 -18
0 -29 16 -21 31 9 14 29 6 33 -14z m127 2 c0 -7 -8 -15 -17 -17 -18 -3 -25 18
-11 32 10 10 28 1 28 -15z m131 10 c10 -17 -13 -36 -27 -22 -12 12 -4 33 11
33 5 0 12 -5 16 -11z m-322 -67 c2 -4 1 -14 -4 -22 -7 -11 -11 -11 -24 -1 -9
7 -13 17 -10 22 7 11 31 12 38 1z m124 -9 c-4 -22 -22 -20 -26 1 -2 10 3 16
13 16 10 0 15 -7 13 -17z m136 8 c3 -5 -1 -15 -10 -22 -13 -10 -17 -10 -24 1
-5 8 -6 18 -4 22 7 11 31 10 38 -1z m126 -11 c0 -11 -7 -20 -15 -20 -8 0 -15
9 -15 20 0 11 7 20 15 20 8 0 15 -9 15 -20z m-322 -63 c2 -10 -3 -17 -12 -17
-18 0 -29 16 -21 31 9 14 29 6 33 -14z m127 2 c0 -7 -8 -15 -17 -17 -18 -3
-25 18 -11 32 10 10 28 1 28 -15z m131 10 c10 -17 -13 -36 -27 -22 -12 12 -4
33 11 33 5 0 12 -5 16 -11z m134 -10 c0 -12 -29 -24 -37 -16 -3 4 -3 13 0 21
6 16 37 11 37 -5z m-330 -64 c0 -8 -7 -15 -15 -15 -8 0 -15 7 -15 15 0 8 7 15
15 15 8 0 15 -7 15 -15z m135 6 c3 -5 1 -13 -5 -16 -15 -9 -43 3 -35 15 8 13
32 13 40 1z m125 -6 c0 -8 -7 -15 -15 -15 -8 0 -15 7 -15 15 0 8 7 15 15 15 8
0 15 -7 15 -15z"/>
<path d="M3125 5662 c-65 -31 -117 -101 -129 -178 -16 -92 59 -207 155 -238
52 -17 115 -21 123 -7 3 4 18 11 34 14 35 7 96 65 119 115 43 90 5 221 -81
279 -54 36 -160 43 -221 15z m165 -77 c81 -42 100 -156 38 -222 -25 -27 -79
-53 -110 -53 -31 0 -95 37 -117 69 -25 35 -28 108 -6 150 32 63 128 90 195 56z"/>
<path d="M1142 5508 c-7 -7 -12 -20 -12 -30 0 -12 -8 -18 -24 -18 -28 0 -41
-15 -41 -45 0 -14 -7 -20 -21 -20 -31 -1 -53 -22 -47 -45 4 -15 0 -20 -15 -20
-22 0 -38 -16 -44 -45 -2 -11 -10 -20 -18 -20 -18 0 -74 -73 -141 -183 -42
-68 -49 -88 -44 -112 6 -26 4 -30 -14 -30 -15 0 -28 -14 -46 -52 -14 -28 -25
-56 -25 -61 0 -5 -6 -23 -14 -40 -7 -18 -24 -63 -36 -102 -13 -38 -25 -75 -27
-81 -2 -6 5 -14 16 -17 24 -6 29 -37 6 -37 -9 0 -19 8 -22 17 -13 33 -45 -169
-92 -572 -34 -290 -58 -394 -150 -645 -61 -170 -147 -339 -247 -487 l-84 -124
0 -134 c0 -127 1 -135 24 -162 13 -16 48 -42 76 -57 49 -27 57 -28 143 -23 51
3 103 8 116 13 27 8 28 21 -4 -166 -27 -156 -29 -203 -11 -238 28 -54 57 -66
155 -64 47 1 100 4 116 7 27 5 26 3 -10 -14 -22 -10 -74 -34 -115 -52 -85 -37
-106 -52 -126 -91 -16 -31 -17 -119 -3 -193 5 -27 15 -111 23 -185 8 -74 19
-151 25 -170 41 -135 156 -253 306 -316 69 -29 71 -29 270 -29 213 0 241 4
413 62 120 40 302 134 387 200 17 12 41 31 54 40 49 37 211 185 234 215 l25
31 26 -19 c14 -11 26 -24 26 -31 0 -18 -203 -205 -294 -271 -142 -103 -368
-221 -457 -239 -37 -7 -36 -12 6 -43 52 -38 92 -99 119 -184 36 -110 42 -151
72 -553 l6 -73 84 0 c54 0 84 4 84 11 0 6 6 25 14 42 47 108 94 286 122 464
18 112 18 112 43 106 42 -9 46 -18 34 -81 -7 -31 -15 -79 -19 -107 -9 -70 -58
-255 -93 -352 l-29 -83 1314 0 c1352 0 1339 0 1305 36 -5 5 -21 38 -36 74 -15
36 -35 83 -45 105 -29 62 -107 301 -130 395 -11 47 -25 101 -30 120 -16 55
-29 141 -51 330 -34 291 -14 590 60 900 18 72 73 244 83 255 4 5 8 16 8 25 1
8 9 33 20 55 11 22 19 43 20 47 0 11 68 156 151 320 43 87 79 167 79 178 0 31
-81 178 -108 196 -88 58 -464 232 -530 246 -8 2 -19 -6 -25 -17 -75 -126 -174
-198 -314 -226 -54 -11 -72 -11 -135 4 -181 43 -311 181 -324 344 -8 108 -8
107 -61 122 -26 7 -91 26 -143 41 -52 15 -153 44 -225 65 -71 20 -152 43 -180
52 -27 8 -72 21 -100 28 -27 7 -97 27 -155 45 -58 17 -124 36 -148 41 -23 4
-51 13 -63 19 -11 6 -29 8 -39 5 -11 -4 -20 -3 -20 2 0 8 -85 37 -146 49 -27
5 -39 -1 -95 -50 -35 -31 -89 -68 -119 -83 -50 -25 -65 -27 -165 -27 -98 0
-116 3 -168 26 -66 31 -155 111 -191 172 -30 51 -56 148 -56 207 0 58 33 171
61 210 12 17 22 43 23 58 1 21 5 25 23 23 24 -3 38 13 38 43 0 16 6 19 28 17
16 -2 39 3 50 11 12 8 40 20 62 27 65 21 65 20 63 159 0 69 2 133 6 143 4 9 6
28 4 43 -2 22 -12 30 -55 45 -48 17 -54 17 -62 3 -11 -20 -31 -8 -31 18 0 13
-11 25 -34 34 -18 8 -36 23 -39 35 -3 11 -15 24 -27 28 -13 5 -28 23 -34 43
-7 20 -18 33 -25 31 -8 -2 -21 0 -30 3 -14 6 -14 8 2 20 17 12 17 17 3 71 -27
102 -8 234 45 320 20 33 15 46 -9 22z m-76 -219 c10 -17 -13 -36 -27 -22 -12
12 -4 33 11 33 5 0 12 -5 16 -11z m-70 -84 c-5 -14 -9 -15 -21 -5 -12 10 -13
16 -4 27 15 18 34 1 25 -22z m-61 -55 c0 -22 -29 -18 -33 3 -3 14 1 18 15 15
10 -2 18 -10 18 -18z m130 0 c0 -22 -29 -18 -33 3 -3 14 1 18 15 15 10 -2 18
-10 18 -18z m-65 -66 c0 -17 -26 -19 -36 -3 -7 12 15 31 28 23 4 -3 8 -12 8
-20z m-130 1 c0 -8 -6 -15 -14 -15 -17 0 -28 14 -19 24 12 12 33 6 33 -9z
m-64 -56 c10 -17 -13 -36 -27 -22 -12 12 -4 33 11 33 5 0 12 -5 16 -11z m130
0 c7 -12 -15 -31 -28 -23 -4 3 -8 12 -8 20 0 17 26 19 36 3z m132 -6 c2 -8 -5
-13 -17 -13 -12 0 -21 6 -21 16 0 18 31 15 38 -3z m-200 -66 c2 -10 -3 -17
-12 -17 -10 0 -16 9 -16 21 0 24 23 21 28 -4z m130 0 c2 -10 -3 -17 -12 -17
-18 0 -29 16 -21 31 9 14 29 6 33 -14z m130 0 c2 -10 -3 -17 -12 -17 -10 0
-16 9 -16 21 0 24 23 21 28 -4z m-322 -58 c10 -17 -13 -36 -27 -22 -12 12 -4
33 11 33 5 0 12 -5 16 -11z m129 -9 c0 -22 -29 -18 -33 3 -3 14 1 18 15 15 10
-2 18 -10 18 -18z m129 12 c8 -13 -11 -35 -23 -28 -16 10 -14 36 3 36 8 0 17
-4 20 -8z m130 0 c8 -13 -11 -35 -23 -28 -16 10 -14 36 3 36 8 0 17 -4 20 -8z
m-453 -85 c-5 -5 -17 -7 -26 -3 -14 5 -15 9 -5 21 10 12 16 13 27 4 9 -8 10
-16 4 -22z m129 7 c0 -14 -21 -19 -33 -7 -9 9 13 34 24 27 5 -3 9 -12 9 -20z
m130 0 c0 -14 -21 -19 -33 -7 -9 9 13 34 24 27 5 -3 9 -12 9 -20z m130 0 c0
-14 -21 -19 -33 -7 -9 9 13 34 24 27 5 -3 9 -12 9 -20z m130 0 c0 -17 -26 -19
-36 -3 -7 12 15 31 28 23 4 -3 8 -12 8 -20z m122 -6 c-9 -9 -15 -9 -24 0 -10
10 -10 15 2 22 9 6 19 5 24 0 7 -7 6 -14 -2 -22z m-704 -55 c2 -8 -5 -13 -17
-13 -12 0 -21 6 -21 16 0 18 31 15 38 -3z m130 0 c2 -8 -5 -13 -17 -13 -12 0
-21 6 -21 16 0 18 31 15 38 -3z m128 6 c7 -12 -15 -31 -28 -23 -4 3 -8 12 -8
20 0 17 26 19 36 3z m127 -4 c1 -5 -6 -11 -15 -13 -11 -2 -18 3 -18 13 0 17
30 18 33 0z m133 4 c7 -12 -15 -31 -28 -23 -4 3 -8 12 -8 20 0 17 26 19 36 3z
m127 -4 c1 -5 -6 -11 -15 -13 -11 -2 -18 3 -18 13 0 17 30 18 33 0z m-585 -68
c2 -10 -3 -17 -12 -17 -18 0 -29 16 -21 31 9 14 29 6 33 -14z m130 0 c2 -10
-3 -17 -12 -17 -10 0 -16 9 -16 21 0 24 23 21 28 -4z m130 0 c2 -10 -3 -17
-12 -17 -18 0 -29 16 -21 31 9 14 29 6 33 -14z m128 12 c3 -6 1 -16 -5 -22 -9
-9 -14 -8 -21 3 -9 15 -4 30 10 30 5 0 12 -5 16 -11z m132 -12 c2 -10 -3 -17
-12 -17 -18 0 -29 16 -21 31 9 14 29 6 33 -14z m128 12 c10 -17 -13 -36 -27
-22 -12 12 -4 33 11 33 5 0 12 -5 16 -11z m-456 -89 c-19 -12 -35 3 -26 26 6
17 8 17 24 0 15 -15 15 -18 2 -26z m389 3 c-15 -18 -34 -1 -25 22 5 14 9 15
21 5 12 -10 13 -16 4 -27z m-644 7 c0 -22 -29 -18 -33 3 -3 14 1 18 15 15 10
-2 18 -10 18 -18z m130 0 c0 -22 -29 -18 -33 3 -3 14 1 18 15 15 10 -2 18 -10
18 -18z m259 12 c8 -13 -11 -35 -23 -28 -16 10 -14 36 3 36 8 0 17 -4 20 -8z
m129 1 c9 -9 -13 -34 -24 -27 -14 8 -11 34 4 34 8 0 17 -3 20 -7z m-455 -76
c2 -10 -3 -17 -12 -17 -18 0 -29 16 -21 31 9 14 29 6 33 -14z m130 0 c2 -10
-3 -17 -12 -17 -10 0 -16 9 -16 21 0 24 23 21 28 -4z m130 0 c2 -10 -3 -17
-12 -17 -18 0 -29 16 -21 31 9 14 29 6 33 -14z m130 0 c2 -10 -3 -17 -12 -17
-10 0 -16 9 -16 21 0 24 23 21 28 -4z m130 0 c2 -10 -3 -17 -12 -17 -18 0 -29
16 -21 31 9 14 29 6 33 -14z m128 12 c10 -17 -13 -36 -27 -22 -12 12 -4 33 11
33 5 0 12 -5 16 -11z m-709 -65 c-3 -3 -12 -4 -19 -1 -8 3 -5 6 6 6 11 1 17
-2 13 -5z m131 -6 c-7 -19 -38 -22 -38 -4 0 10 9 16 21 16 12 0 19 -5 17 -12z
m125 -3 c1 -5 -6 -11 -15 -13 -11 -2 -18 3 -18 13 0 17 30 18 33 0z m130 0 c1
-5 -6 -11 -15 -13 -11 -2 -18 3 -18 13 0 17 30 18 33 0z m130 0 c1 -5 -6 -11
-15 -13 -11 -2 -18 3 -18 13 0 17 30 18 33 0z m130 0 c1 -5 -6 -11 -15 -13
-11 -2 -18 3 -18 13 0 17 30 18 33 0z m-325 -62 c-4 -22 -22 -20 -26 1 -2 10
3 16 13 16 10 0 15 -7 13 -17z m128 6 c8 -14 -11 -33 -25 -25 -11 7 -4 36 9
36 5 0 12 -5 16 -11z m-56 -71 c0 -13 -23 -5 -28 10 -2 7 2 10 12 6 9 -3 16
-11 16 -16z"/>
<path d="M1425 5482 c-61 -24 -120 -88 -140 -152 -16 -51 -16 -59 -1 -110 32
-109 110 -169 219 -170 67 0 114 19 158 63 47 47 62 85 62 157 -1 80 -11 108
-59 155 -69 69 -156 90 -239 57z m122 -73 c106 -40 132 -174 48 -248 -30 -26
-44 -31 -87 -31 -89 0 -148 57 -148 142 0 50 30 100 75 125 45 25 70 28 112
12z"/>
<path d="M0 5375 c0 -77 2 -86 18 -83 9 2 25 20 35 40 16 33 17 40 3 71 -8 20
-24 40 -35 47 -21 10 -21 9 -21 -75z"/>
<path d="M2753 5409 c-6 -6 -55 -12 -109 -14 -55 -3 -115 -9 -134 -15 -19 -5
-47 -10 -63 -10 -21 0 -27 -4 -25 -17 2 -10 -4 -19 -14 -21 -11 -2 -18 3 -18
12 0 20 -78 23 -86 3 -3 -9 -27 -13 -77 -13 -101 1 -259 -25 -253 -40 3 -7 -2
-18 -10 -25 -13 -10 -17 -10 -24 1 -5 8 -6 18 -4 22 3 4 1 8 -3 8 -9 0 -43
-171 -36 -183 10 -18 161 -86 180 -81 14 4 22 0 25 -14 8 -29 200 -124 233
-116 20 5 25 2 25 -13 0 -15 27 -34 110 -77 61 -32 110 -52 110 -47 0 6 8 11
18 11 20 0 46 25 54 49 2 8 17 15 34 17 51 4 148 36 160 52 10 14 13 14 35 -1
35 -25 44 -21 64 26 9 23 21 50 26 60 5 10 7 22 4 28 -4 5 3 21 14 35 30 38
26 58 -18 87 -43 29 -125 131 -134 168 -28 113 -30 119 -52 119 -11 0 -26 -5
-32 -11z m-200 -64 c1 -5 -6 -11 -15 -13 -11 -2 -18 3 -18 13 0 17 30 18 33 0z
m130 0 c1 -5 -6 -11 -15 -13 -11 -2 -18 3 -18 13 0 17 30 18 33 0z m127 0 c0
-8 -7 -15 -15 -15 -8 0 -15 7 -15 15 0 8 7 15 15 15 8 0 15 -7 15 -15z m-715
-65 c0 -7 -6 -15 -12 -17 -8 -3 -13 4 -13 17 0 13 5 20 13 18 6 -3 12 -11 12
-18z m135 0 c0 -11 -6 -20 -14 -20 -18 0 -29 16 -21 30 11 18 35 11 35 -10z
m126 9 c10 -17 -13 -36 -27 -22 -12 12 -4 33 11 33 5 0 12 -5 16 -11z m130 0
c10 -17 -13 -36 -27 -22 -12 12 -4 33 11 33 5 0 12 -5 16 -11z m130 0 c10 -17
-13 -36 -27 -22 -12 12 -4 33 11 33 5 0 12 -5 16 -11z m130 0 c10 -17 -13 -36
-27 -22 -12 12 -4 33 11 33 5 0 12 -5 16 -11z m-711 -70 c0 -7 -8 -15 -17 -17
-18 -3 -25 18 -11 32 10 10 28 1 28 -15z m129 6 c3 -9 -1 -18 -10 -22 -19 -7
-28 2 -21 22 8 19 23 19 31 0z m130 0 c3 -9 -1 -18 -10 -22 -19 -7 -28 2 -21
22 8 19 23 19 31 0z m130 0 c3 -9 -1 -18 -10 -22 -19 -7 -28 2 -21 22 8 19 23
19 31 0z m129 1 c7 -19 -18 -42 -28 -26 -8 13 1 40 14 40 5 0 11 -6 14 -14z
m131 -17 c-8 -14 -34 -11 -34 4 0 8 3 17 7 20 9 9 34 -13 27 -24z m126 5 c0
-8 -7 -14 -15 -14 -15 0 -21 21 -9 33 10 9 24 -2 24 -19z m-840 -64 c0 -11 -6
-20 -14 -20 -18 0 -29 16 -21 30 11 18 35 11 35 -10z m130 0 c0 -11 -7 -20
-15 -20 -8 0 -15 9 -15 20 0 11 7 20 15 20 8 0 15 -9 15 -20z m130 0 c0 -11
-6 -20 -14 -20 -18 0 -29 16 -21 30 11 18 35 11 35 -10z m126 9 c10 -17 -13
-36 -27 -22 -12 12 -4 33 11 33 5 0 12 -5 16 -11z m134 -3 c0 -8 -5 -18 -11
-22 -14 -8 -33 11 -25 25 10 16 36 13 36 -3z m126 3 c10 -17 -13 -36 -27 -22
-12 12 -4 33 11 33 5 0 12 -5 16 -11z m130 0 c10 -17 -13 -36 -27 -22 -12 12
-4 33 11 33 5 0 12 -5 16 -11z m130 0 c10 -17 -13 -36 -27 -22 -12 12 -4 33
11 33 5 0 12 -5 16 -11z m-576 -70 c0 -12 -29 -24 -37 -16 -3 4 -3 13 0 21 6
16 37 11 37 -5z m254 -10 c-8 -14 -34 -11 -34 4 0 8 3 17 7 20 9 9 34 -13 27
-24z m136 10 c0 -12 -29 -24 -37 -16 -3 4 -3 13 0 21 6 16 37 11 37 -5z m251
-12 c-5 -5 -17 -7 -26 -3 -14 5 -15 9 -5 21 10 12 16 13 27 4 9 -8 10 -16 4
-22z m-903 11 c-7 -19 -38 -22 -38 -4 0 10 9 16 21 16 12 0 19 -5 17 -12z
m130 0 c-7 -19 -38 -22 -38 -4 0 10 9 16 21 16 12 0 19 -5 17 -12z m260 0 c-7
-19 -38 -22 -38 -4 0 10 9 16 21 16 12 0 19 -5 17 -12z m382 -3 c0 -8 -7 -15
-15 -15 -8 0 -15 7 -15 15 0 8 7 15 15 15 8 0 15 -7 15 -15z m-580 -59 c0 -8
-4 -17 -8 -20 -13 -8 -35 11 -28 23 10 16 36 14 36 -3z m126 3 c3 -6 2 -15 -2
-19 -12 -12 -38 5 -30 19 9 14 23 14 32 0z m134 -3 c0 -8 -5 -18 -11 -22 -14
-8 -33 11 -25 25 10 16 36 13 36 -3z m126 3 c3 -6 2 -15 -2 -19 -12 -12 -38 5
-30 19 9 14 23 14 32 0z m134 -3 c0 -8 -4 -17 -8 -20 -13 -8 -35 11 -28 23 10
16 36 14 36 -3z m126 3 c8 -14 -18 -31 -30 -19 -9 9 0 30 14 30 5 0 12 -5 16
-11z m-581 -70 c0 -7 -8 -15 -17 -17 -18 -3 -25 18 -11 32 10 10 28 1 28 -15z
m129 6 c3 -9 -1 -18 -10 -22 -19 -7 -28 2 -21 22 8 19 23 19 31 0z m126 -5 c0
-11 -7 -20 -15 -20 -15 0 -21 21 -8 33 12 13 23 7 23 -13z m135 -1 c0 -7 -8
-15 -17 -17 -18 -3 -25 18 -11 32 10 10 28 1 28 -15z m125 1 c0 -11 -7 -20
-15 -20 -8 0 -15 9 -15 20 0 11 7 20 15 20 8 0 15 -9 15 -20z m134 -11 c-8
-14 -34 -11 -34 4 0 8 3 17 7 20 9 9 34 -13 27 -24z m-454 -53 c0 -8 -5 -18
-11 -22 -14 -8 -33 11 -25 25 10 16 36 13 36 -3z m130 0 c0 -20 -19 -31 -32
-18 -6 6 -7 15 -4 21 10 16 36 13 36 -3z m130 0 c0 -20 -19 -31 -32 -18 -6 6
-7 15 -4 21 10 16 36 13 36 -3z m-200 -80 c-13 -13 -35 7 -25 24 5 8 11 8 21
-1 10 -8 12 -15 4 -23z"/>
<path d="M3529 5183 c-1 -5 -2 -17 -3 -28 -1 -13 -7 -19 -21 -18 -35 3 -56
-15 -49 -42 7 -26 -12 -35 -32 -15 -7 7 -29 4 -69 -10 -32 -11 -69 -20 -83
-20 -21 0 -23 -2 -11 -16 10 -13 10 -17 -1 -24 -19 -12 -33 -2 -27 20 4 16 -3
19 -52 22 -31 2 -64 8 -74 12 -14 7 -20 1 -32 -27 -9 -21 -12 -48 -9 -66 5
-25 3 -31 -10 -31 -10 0 -23 -15 -32 -35 -17 -43 -17 -45 0 -45 8 0 44 -20 80
-44 l66 -44 95 46 c78 39 95 51 95 69 0 24 19 30 37 12 8 -8 29 -2 77 21 36
18 71 39 77 46 6 8 20 14 29 14 37 0 50 11 44 36 -5 18 -2 24 10 24 9 0 19 -6
22 -14 5 -13 11 -13 40 1 40 20 43 30 10 43 -13 5 -25 13 -27 18 -4 9 -136
102 -145 102 -2 0 -5 -3 -5 -7z m61 -99 c0 -9 -7 -14 -17 -12 -25 5 -28 28 -4
28 12 0 21 -6 21 -16z m-454 -55 c10 -17 -13 -36 -27 -22 -12 12 -4 33 11 33
5 0 12 -5 16 -11z m259 -9 c0 -22 -29 -18 -33 3 -3 14 1 18 15 15 10 -2 18
-10 18 -18z m131 9 c8 -14 -18 -31 -30 -19 -9 9 0 30 14 30 5 0 12 -5 16 -11z
m-328 -72 c2 -10 -3 -17 -12 -17 -18 0 -29 16 -21 31 9 14 29 6 33 -14z m130
0 c2 -10 -3 -17 -12 -17 -10 0 -16 9 -16 21 0 24 23 21 28 -4z m129 8 c7 -20
-2 -29 -21 -22 -9 4 -13 13 -10 22 8 19 23 19 31 0z m-321 -66 c10 -17 -13
-36 -27 -22 -12 12 -4 33 11 33 5 0 12 -5 16 -11z m130 0 c10 -17 -13 -36 -27
-22 -12 12 -4 33 11 33 5 0 12 -5 16 -11z m-62 -80 c-7 -13 -31 -11 -40 2 -9
16 18 30 33 17 7 -6 10 -14 7 -19z"/>
<path d="M1840 5030 c0 -16 -78 -90 -106 -101 -16 -6 -24 -15 -21 -23 3 -8 -1
-20 -9 -27 -13 -10 -17 -10 -24 1 -7 12 -15 12 -42 3 -18 -7 -52 -15 -75 -19
l-43 -7 -2 -56 c0 -31 -2 -99 -3 -151 0 -53 -4 -100 -7 -106 -13 -20 9 -36 39
-30 21 5 34 2 43 -9 7 -8 19 -15 27 -15 9 0 37 -12 64 -26 41 -23 51 -25 64
-14 21 18 44 -2 27 -23 -17 -20 16 -48 46 -40 16 4 22 1 22 -10 0 -9 -4 -18
-10 -22 -9 -6 39 -95 52 -95 23 0 117 43 122 56 4 10 13 13 24 10 19 -6 122
25 156 48 12 7 38 16 58 20 20 4 50 13 65 21 15 8 35 15 44 15 9 0 22 6 29 14
6 8 26 16 43 18 24 2 32 8 33 23 0 11 5 29 11 40 6 11 14 35 18 53 3 18 13 46
22 62 8 17 13 37 11 46 -2 12 -135 94 -153 94 -3 0 -5 -6 -5 -14 0 -20 -13
-27 -30 -15 -13 8 -12 11 3 23 18 14 18 15 -2 25 -11 6 -31 11 -45 11 -15 0
-26 6 -26 14 0 19 -199 120 -232 118 -21 -2 -28 2 -28 15 -1 12 -23 29 -68 51
-70 33 -92 39 -92 22z m65 -71 c0 -7 -8 -15 -17 -17 -18 -3 -25 18 -11 32 10
10 28 1 28 -15z m-65 -69 c0 -11 -7 -20 -15 -20 -8 0 -15 9 -15 20 0 11 7 20
15 20 8 0 15 -9 15 -20z m133 13 c4 -3 2 -12 -4 -20 -9 -10 -15 -10 -25 -2 -8
6 -11 15 -8 20 6 11 28 12 37 2z m125 -10 c-5 -25 -28 -28 -28 -4 0 12 6 21
16 21 9 0 14 -7 12 -17z m-453 -64 c0 -7 -8 -15 -17 -17 -18 -3 -25 18 -11 32
10 10 28 1 28 -15z m131 10 c10 -17 -13 -36 -27 -22 -12 12 -4 33 11 33 5 0
12 -5 16 -11z m134 -10 c0 -12 -29 -24 -37 -16 -3 4 -3 13 0 21 6 16 37 11 37
-5z m130 0 c0 -12 -29 -24 -37 -16 -3 4 -3 13 0 21 6 16 37 11 37 -5z m125 0
c0 -7 -8 -15 -17 -17 -18 -3 -25 18 -11 32 10 10 28 1 28 -15z m-585 -64 c0
-8 -7 -15 -15 -15 -8 0 -15 7 -15 15 0 8 7 15 15 15 8 0 15 -7 15 -15z m133 8
c4 -3 2 -12 -4 -20 -9 -10 -15 -10 -25 -2 -8 6 -11 15 -8 20 6 11 28 12 37 2z
m127 -8 c0 -8 -7 -15 -15 -15 -8 0 -15 7 -15 15 0 8 7 15 15 15 8 0 15 -7 15
-15z m130 2 c0 -8 -3 -17 -7 -20 -9 -9 -34 13 -27 24 8 14 34 11 34 -4z m130
-2 c0 -8 -7 -15 -15 -15 -8 0 -15 7 -15 15 0 8 7 15 15 15 8 0 15 -7 15 -15z
m130 0 c0 -8 -6 -15 -14 -15 -17 0 -28 14 -19 24 12 12 33 6 33 -9z m-584 -56
c10 -17 -13 -36 -27 -22 -12 12 -4 33 11 33 5 0 12 -5 16 -11z m130 0 c10 -17
-13 -36 -27 -22 -12 12 -4 33 11 33 5 0 12 -5 16 -11z m130 0 c10 -17 -13 -36
-27 -22 -12 12 -4 33 11 33 5 0 12 -5 16 -11z m130 0 c10 -17 -13 -36 -27 -22
-12 12 -4 33 11 33 5 0 12 -5 16 -11z m130 0 c10 -17 -13 -36 -27 -22 -12 12
-4 33 11 33 5 0 12 -5 16 -11z m130 0 c10 -17 -13 -36 -27 -22 -12 12 -4 33
11 33 5 0 12 -5 16 -11z m129 -10 c0 -7 -8 -15 -17 -17 -18 -3 -25 18 -11 32
10 10 28 1 28 -15z m-849 -75 c-5 -13 -10 -14 -18 -6 -6 6 -8 18 -4 28 5 13
10 14 18 6 6 -6 8 -18 4 -28z m393 0 c-9 -11 -15 -12 -25 -3 -11 9 -12 15 -3
25 9 11 15 12 25 3 11 -9 12 -15 3 -25z m391 11 c0 -19 -13 -25 -30 -15 -11 7
-11 11 -1 24 15 17 31 13 31 -9z m-647 8 c4 -3 2 -12 -4 -20 -9 -10 -15 -10
-25 -2 -8 6 -11 15 -8 20 6 11 28 12 37 2z m125 -10 c-4 -22 -22 -20 -26 1 -2
10 3 16 13 16 10 0 15 -7 13 -17z m260 0 c-5 -25 -28 -28 -28 -4 0 12 6 21 16
21 9 0 14 -7 12 -17z m132 4 c0 -8 -3 -17 -7 -20 -9 -9 -34 13 -27 24 8 14 34
11 34 -4z m260 -1 c0 -17 -27 -29 -35 -16 -4 6 -3 15 0 20 9 15 35 12 35 -4z
m-845 -67 c0 -7 -8 -15 -17 -17 -18 -3 -25 18 -11 32 10 10 28 1 28 -15z m131
10 c10 -17 -13 -36 -27 -22 -12 12 -4 33 11 33 5 0 12 -5 16 -11z m129 -10 c0
-7 -8 -15 -17 -17 -18 -3 -25 18 -11 32 10 10 28 1 28 -15z m131 10 c10 -17
-13 -36 -27 -22 -12 12 -4 33 11 33 5 0 12 -5 16 -11z m129 -10 c0 -7 -8 -15
-17 -17 -18 -3 -25 18 -11 32 10 10 28 1 28 -15z m131 10 c10 -17 -13 -36 -27
-22 -12 12 -4 33 11 33 5 0 12 -5 16 -11z m129 -10 c0 -7 -8 -15 -17 -17 -18
-3 -25 18 -11 32 10 10 28 1 28 -15z m-710 -58 c3 -5 1 -13 -5 -16 -15 -9 -43
3 -35 15 8 13 32 13 40 1z m125 -6 c0 -8 -7 -15 -15 -15 -8 0 -15 7 -15 15 0
8 7 15 15 15 8 0 15 -7 15 -15z m135 6 c3 -5 1 -13 -5 -16 -15 -9 -43 3 -35
15 8 13 32 13 40 1z m125 -6 c0 -8 -7 -15 -15 -15 -8 0 -15 7 -15 15 0 8 7 15
15 15 8 0 15 -7 15 -15z m130 0 c0 -8 -6 -15 -14 -15 -17 0 -28 14 -19 24 12
12 33 6 33 -9z m130 0 c0 -8 -6 -15 -14 -15 -17 0 -28 14 -19 24 12 12 33 6
33 -9z m-454 -56 c10 -17 -13 -36 -27 -22 -12 12 -4 33 11 33 5 0 12 -5 16
-11z m130 0 c10 -17 -13 -36 -27 -22 -12 12 -4 33 11 33 5 0 12 -5 16 -11z
m130 0 c10 -17 -13 -36 -27 -22 -12 12 -4 33 11 33 5 0 12 -5 16 -11z m130 0
c10 -17 -13 -36 -27 -22 -12 12 -4 33 11 33 5 0 12 -5 16 -11z m-330 -84 c-5
-14 -9 -15 -21 -5 -12 10 -13 16 -4 27 15 18 34 1 25 -22z m134 10 c0 -8 -7
-15 -15 -15 -8 0 -15 7 -15 15 0 8 7 15 15 15 8 0 15 -7 15 -15z m-194 -56
c10 -17 -13 -36 -27 -22 -12 12 -4 33 11 33 5 0 12 -5 16 -11z"/>
<path d="M3770 4977 c-14 -8 -34 -19 -45 -25 -11 -7 -33 -16 -48 -22 -22 -8
-27 -15 -22 -29 8 -26 -15 -39 -30 -17 -12 15 -18 14 -79 -15 -36 -17 -71 -37
-77 -45 -6 -8 -21 -14 -33 -14 -27 -1 -61 -26 -47 -35 6 -3 11 -10 11 -16 0
-13 -38 -11 -42 3 -3 8 -25 2 -72 -20 -46 -22 -65 -36 -60 -45 4 -6 15 -23 24
-37 10 -14 23 -56 29 -95 17 -97 20 -105 37 -105 8 0 14 -9 14 -20 0 -13 -7
-20 -19 -20 -21 0 -31 -19 -31 -61 0 -22 5 -29 20 -29 10 0 24 -8 29 -18 5
-10 69 -58 141 -107 109 -74 134 -87 149 -78 26 16 46 1 32 -25 -12 -22 1 -32
42 -32 13 0 26 -9 32 -22 6 -12 22 -29 36 -37 14 -9 73 -48 130 -86 l104 -70
38 24 c20 13 37 30 37 37 0 7 15 20 34 29 21 10 36 25 38 38 2 13 10 22 20 22
22 0 43 21 43 43 0 10 8 17 20 18 45 2 53 13 50 67 -2 29 -8 65 -14 80 -16 41
-13 155 5 206 8 25 12 56 9 72 -5 24 -3 29 12 29 45 0 59 60 19 82 -13 7 -50
36 -82 65 -149 131 -369 301 -372 287 -4 -16 -28 -19 -37 -4 -4 6 -1 17 5 25
10 12 9 15 -6 15 -11 0 -30 -6 -44 -13z m14 -75 c8 -13 -11 -35 -23 -28 -16
10 -14 36 3 36 8 0 17 -4 20 -8z m130 0 c2 -4 1 -14 -4 -22 -7 -11 -11 -11
-24 -1 -9 7 -13 17 -10 22 7 11 31 12 38 1z m-324 -78 c0 -17 -26 -19 -36 -3
-7 12 15 31 28 23 4 -3 8 -12 8 -20z m130 0 c0 -14 -21 -19 -33 -7 -9 9 13 34
24 27 5 -3 9 -12 9 -20z m127 11 c7 -20 -2 -29 -21 -22 -9 4 -13 13 -10 22 8
19 23 19 31 0z m133 -11 c0 -17 -26 -19 -36 -3 -7 12 15 31 28 23 4 -3 8 -12
8 -20z m-454 -55 c7 -12 -15 -31 -28 -23 -4 3 -8 12 -8 20 0 17 26 19 36 3z
m132 -6 c2 -8 -5 -13 -17 -13 -12 0 -21 6 -21 16 0 18 31 15 38 -3z m122 2 c0
-8 -7 -15 -15 -15 -8 0 -15 7 -15 15 0 8 7 15 15 15 8 0 15 -7 15 -15z m136 4
c7 -12 -15 -31 -28 -23 -4 3 -8 12 -8 20 0 17 26 19 36 3z m124 -4 c0 -8 -7
-15 -15 -15 -8 0 -15 7 -15 15 0 8 7 15 15 15 8 0 15 -7 15 -15z m-712 -68 c2
-10 -3 -17 -12 -17 -10 0 -16 9 -16 21 0 24 23 21 28 -4z m130 0 c2 -10 -3
-17 -12 -17 -18 0 -29 16 -21 31 9 14 29 6 33 -14z m130 0 c2 -10 -3 -17 -12
-17 -18 0 -29 16 -21 31 9 14 29 6 33 -14z m130 0 c2 -10 -3 -17 -12 -17 -18
0 -29 16 -21 31 9 14 29 6 33 -14z m128 12 c10 -17 -13 -36 -27 -22 -12 12 -4
33 11 33 5 0 12 -5 16 -11z m130 0 c10 -17 -13 -36 -27 -22 -12 12 -4 33 11
33 5 0 12 -5 16 -11z m130 0 c10 -17 -13 -36 -27 -22 -12 12 -4 33 11 33 5 0
12 -5 16 -11z m-584 -91 c-16 -16 -37 4 -28 28 6 16 8 16 23 1 13 -13 15 -19
5 -29z m387 5 c-15 -18 -34 -1 -25 22 5 14 9 15 21 5 12 -10 13 -16 4 -27z
m-514 7 c0 -22 -29 -18 -33 3 -3 14 1 18 15 15 10 -2 18 -10 18 -18z m261 9
c7 -12 -15 -31 -28 -23 -4 3 -8 12 -8 20 0 17 26 19 36 3z m124 -10 c0 -24
-23 -21 -28 4 -2 10 3 17 12 17 10 0 16 -9 16 -21z m258 4 c-4 -22 -22 -20
-26 1 -2 10 3 16 13 16 10 0 15 -7 13 -17z m135 10 c4 -3 2 -12 -4 -20 -9 -10
-15 -10 -25 -2 -8 6 -11 15 -8 20 6 11 28 12 37 2z m-843 -79 c0 -8 -7 -14
-15 -14 -15 0 -21 21 -9 33 10 9 24 -2 24 -19z m128 3 c2 -10 -3 -17 -12 -17
-18 0 -29 16 -21 31 9 14 29 6 33 -14z m130 0 c2 -10 -3 -17 -12 -17 -18 0
-29 16 -21 31 9 14 29 6 33 -14z m130 0 c2 -10 -3 -17 -12 -17 -18 0 -29 16
-21 31 9 14 29 6 33 -14z m128 12 c10 -17 -13 -36 -27 -22 -12 12 -4 33 11 33
5 0 12 -5 16 -11z m132 -12 c2 -10 -3 -17 -12 -17 -18 0 -29 16 -21 31 9 14
29 6 33 -14z m128 12 c10 -17 -13 -36 -27 -22 -12 12 -4 33 11 33 5 0 12 -5
16 -11z m132 -12 c2 -10 -3 -17 -12 -17 -18 0 -29 16 -21 31 9 14 29 6 33 -14z
m-840 -59 c-7 -19 -38 -22 -38 -4 0 10 9 16 21 16 12 0 19 -5 17 -12z m125 -3
c1 -5 -6 -11 -15 -13 -11 -2 -18 3 -18 13 0 17 30 18 33 0z m130 0 c1 -5 -6
-11 -15 -13 -11 -2 -18 3 -18 13 0 17 30 18 33 0z m130 0 c1 -5 -6 -11 -15
-13 -11 -2 -18 3 -18 13 0 17 30 18 33 0z m132 6 c3 -5 1 -13 -5 -16 -15 -9
-43 3 -35 15 8 13 32 13 40 1z m125 -6 c0 -8 -7 -15 -15 -15 -8 0 -15 7 -15
15 0 8 7 15 15 15 8 0 15 -7 15 -15z m135 6 c3 -5 1 -13 -5 -16 -15 -9 -43 3
-35 15 8 13 32 13 40 1z m-715 -71 c0 -11 -6 -20 -14 -20 -18 0 -29 16 -21 30
11 18 35 11 35 -10z m126 9 c10 -17 -13 -36 -27 -22 -12 12 -4 33 11 33 5 0
12 -5 16 -11z m134 -3 c0 -20 -19 -31 -32 -18 -6 6 -7 15 -4 21 10 16 36 13
36 -3z m126 3 c10 -17 -13 -36 -27 -22 -12 12 -4 33 11 33 5 0 12 -5 16 -11z
m130 0 c10 -17 -13 -36 -27 -22 -12 12 -4 33 11 33 5 0 12 -5 16 -11z m130 0
c10 -17 -13 -36 -27 -22 -12 12 -4 33 11 33 5 0 12 -5 16 -11z m130 0 c10 -17
-13 -36 -27 -22 -12 12 -4 33 11 33 5 0 12 -5 16 -11z m-717 -86 c-15 -18 -34
-1 -25 22 5 14 9 15 21 5 12 -10 13 -16 4 -27z m135 6 c-8 -14 -34 -11 -34 4
0 8 3 17 7 20 9 9 34 -13 27 -24z m255 -6 c-15 -18 -34 -1 -25 22 5 14 9 15
21 5 12 -10 13 -16 4 -27z m-509 12 c0 -8 -9 -15 -20 -15 -11 0 -20 7 -20 15
0 8 9 15 20 15 11 0 20 -7 20 -15z m378 -2 c-4 -22 -22 -20 -26 1 -2 10 3 16
13 16 10 0 15 -7 13 -17z m260 0 c-4 -22 -22 -20 -26 1 -2 10 3 16 13 16 10 0
15 -7 13 -17z m135 2 c1 -5 -6 -11 -15 -13 -11 -2 -18 3 -18 13 0 17 30 18 33
0z m-717 -56 c10 -17 -13 -36 -27 -22 -12 12 -4 33 11 33 5 0 12 -5 16 -11z
m130 0 c10 -17 -13 -36 -27 -22 -12 12 -4 33 11 33 5 0 12 -5 16 -11z m130 0
c10 -17 -13 -36 -27 -22 -12 12 -4 33 11 33 5 0 12 -5 16 -11z m130 0 c10 -17
-13 -36 -27 -22 -12 12 -4 33 11 33 5 0 12 -5 16 -11z m130 0 c10 -17 -13 -36
-27 -22 -12 12 -4 33 11 33 5 0 12 -5 16 -11z m130 0 c10 -17 -13 -36 -27 -22
-12 12 -4 33 11 33 5 0 12 -5 16 -11z m130 0 c10 -17 -13 -36 -27 -22 -12 12
-4 33 11 33 5 0 12 -5 16 -11z m-712 -64 c3 -9 -1 -18 -10 -22 -19 -7 -28 2
-21 22 8 19 23 19 31 0z m130 -16 c-8 -14 -34 -11 -34 4 0 8 3 17 7 20 9 9 34
-13 27 -24z m130 16 c3 -9 -1 -18 -10 -22 -19 -7 -28 2 -21 22 8 19 23 19 31
0z m127 -18 c-5 -5 -17 -7 -26 -3 -14 5 -15 9 -5 21 10 12 16 13 27 4 9 -8 10
-16 4 -22z m129 7 c0 -8 -7 -14 -15 -14 -15 0 -21 21 -9 33 10 9 24 -2 24 -19z
m135 7 c3 -5 1 -13 -5 -16 -15 -9 -43 3 -35 15 8 13 32 13 40 1z m-585 -65 c0
-20 -19 -31 -32 -18 -6 6 -7 15 -4 21 10 16 36 13 36 -3z m130 0 c0 -20 -19
-31 -32 -18 -6 6 -7 15 -4 21 10 16 36 13 36 -3z m130 0 c0 -20 -19 -31 -32
-18 -6 6 -7 15 -4 21 10 16 36 13 36 -3z m130 0 c0 -20 -19 -31 -32 -18 -6 6
-7 15 -4 21 10 16 36 13 36 -3z m126 3 c10 -17 -13 -36 -27 -22 -12 12 -4 33
11 33 5 0 12 -5 16 -11z m134 -3 c0 -20 -19 -31 -32 -18 -6 6 -7 15 -4 21 10
16 36 13 36 -3z m-460 -66 c0 -11 -7 -20 -15 -20 -15 0 -21 21 -8 33 12 13 23
7 23 -13z m140 -1 c0 -12 -29 -24 -37 -16 -3 4 -3 13 0 21 6 16 37 11 37 -5z
m120 -5 c0 -8 -7 -14 -15 -14 -15 0 -21 21 -9 33 10 9 24 -2 24 -19z m131 -7
c-5 -5 -17 -7 -26 -3 -14 5 -15 9 -5 21 10 12 16 13 27 4 9 -8 10 -16 4 -22z
m-323 -55 c2 -7 -6 -12 -17 -12 -21 0 -27 11 -14 24 9 9 26 2 31 -12z m132 4
c0 -8 -4 -17 -8 -20 -13 -8 -35 11 -28 23 10 16 36 14 36 -3z m126 3 c3 -6 2
-15 -2 -19 -12 -12 -38 5 -30 19 9 14 23 14 32 0z m-186 -70 c0 -12 -29 -24
-37 -16 -3 4 -3 13 0 21 6 16 37 11 37 -5z m120 -5 c0 -8 -7 -14 -15 -14 -15
0 -21 21 -9 33 10 9 24 -2 24 -19z m-60 -58 c0 -20 -19 -31 -32 -18 -6 6 -7
15 -4 21 10 16 36 13 36 -3z"/>
<path d="M2811 4686 c-49 -18 -111 -74 -132 -120 -57 -125 9 -267 145 -312
167 -56 341 140 267 302 -51 112 -173 169 -280 130z m148 -95 c45 -31 64 -67
65 -120 1 -59 -21 -95 -80 -128 -48 -28 -67 -28 -120 -2 -122 58 -111 232 16
267 43 12 87 5 119 -17z"/>
<path d="M4595 4521 c-3 -5 -19 -12 -35 -16 -41 -9 -97 -78 -117 -144 -14 -50
-14 -58 2 -112 26 -85 91 -146 173 -164 45 -9 122 2 149 23 l23 17 -20 32
c-19 32 -19 32 -51 16 -73 -37 -171 11 -199 98 -12 35 -11 45 6 87 26 62 70
92 138 92 43 0 58 -5 88 -31 40 -32 64 -93 54 -135 -6 -23 27 -84 44 -84 15 0
30 54 30 104 0 87 -35 149 -111 196 -40 24 -60 30 -109 30 -32 0 -61 -4 -65
-9z"/>
<path d="M2368 4353 c-38 -14 -68 -32 -68 -39 0 -20 -17 -26 -39 -12 -14 8
-23 9 -33 1 -7 -6 -32 -16 -56 -23 -24 -6 -52 -20 -63 -31 -11 -11 -27 -18
-35 -15 -16 6 -138 -37 -161 -56 -10 -8 -13 -31 -12 -77 2 -36 -3 -83 -10
-103 -17 -53 -7 -64 77 -83 26 -5 32 -3 32 10 0 10 7 15 17 13 10 -2 18 -11
18 -22 0 -13 18 -24 74 -42 70 -24 74 -24 92 -8 19 17 20 17 25 -3 8 -31 130
-71 170 -56 10 4 21 0 28 -9 14 -19 99 -49 148 -52 20 -1 42 -7 50 -12 7 -6
40 -19 73 -28 33 -10 80 -23 105 -31 66 -19 116 -28 108 -20 -4 5 -3 14 3 22
15 17 39 -1 32 -25 -3 -13 7 -20 44 -31 26 -7 60 -17 75 -21 19 -6 30 -4 39 6
17 20 28 17 39 -11 12 -32 15 -32 34 7 15 29 15 33 0 49 -15 17 -15 19 -1 25
9 3 20 3 25 0 13 -8 29 14 34 44 2 16 11 26 27 30 13 3 29 13 35 22 14 22 -10
66 -38 70 -16 2 -20 9 -18 29 2 25 -66 143 -128 222 -20 25 -23 26 -43 12 -12
-9 -40 -20 -62 -26 -22 -6 -48 -19 -58 -30 -16 -18 -47 -16 -47 2 0 17 -82 10
-96 -8 -11 -17 -13 -16 -23 10 -6 15 -17 27 -24 27 -28 0 -124 61 -169 107
-26 26 -59 73 -74 103 -23 48 -59 91 -74 89 -3 0 -35 -12 -72 -26z m57 -43 c0
-8 -8 -16 -17 -18 -13 -2 -18 3 -18 18 0 15 5 20 18 18 9 -2 17 -10 17 -18z
m-195 -66 c0 -14 -21 -19 -33 -7 -9 9 13 34 24 27 5 -3 9 -12 9 -20z m130 0
c0 -14 -21 -19 -33 -7 -9 9 13 34 24 27 5 -3 9 -12 9 -20z m130 1 c0 -8 -6
-15 -14 -15 -17 0 -28 14 -19 24 12 12 33 6 33 -9z m-455 -65 c0 -22 -29 -18
-33 3 -3 14 1 18 15 15 10 -2 18 -10 18 -18z m130 0 c0 -22 -29 -18 -33 3 -3
14 1 18 15 15 10 -2 18 -10 18 -18z m130 0 c0 -22 -29 -18 -33 3 -3 14 1 18
15 15 10 -2 18 -10 18 -18z m130 0 c0 -22 -29 -18 -33 3 -3 14 1 18 15 15 10
-2 18 -10 18 -18z m125 -1 c0 -24 -23 -21 -28 4 -2 10 3 17 12 17 10 0 16 -9
16 -21z m-579 -72 c-5 -5 -17 -7 -26 -3 -14 5 -15 9 -5 21 10 12 16 13 27 4 9
-8 10 -16 4 -22z m129 7 c0 -8 -7 -14 -15 -14 -15 0 -21 21 -9 33 10 9 24 -2
24 -19z m130 0 c0 -14 -21 -19 -33 -7 -9 9 13 34 24 27 5 -3 9 -12 9 -20z
m126 -9 c-5 -14 -9 -15 -21 -5 -12 10 -13 16 -4 27 15 18 34 1 25 -22z m132
12 c2 -10 -3 -17 -12 -17 -18 0 -29 16 -21 31 9 14 29 6 33 -14z m132 -3 c0
-17 -26 -19 -36 -3 -7 12 15 31 28 23 4 -3 8 -12 8 -20z m-582 -62 c2 -7 -6
-12 -17 -12 -21 0 -27 11 -14 24 9 9 26 2 31 -12z m127 -2 c0 -22 -29 -18 -33
3 -3 14 1 18 15 15 10 -2 18 -10 18 -18z m131 9 c8 -14 -18 -31 -30 -19 -9 9
0 30 14 30 5 0 12 -5 16 -11z m130 0 c7 -12 -15 -31 -28 -23 -4 3 -8 12 -8 20
0 17 26 19 36 3z m130 0 c8 -14 -18 -31 -30 -19 -9 9 0 30 14 30 5 0 12 -5 16
-11z m130 0 c7 -12 -15 -31 -28 -23 -4 3 -8 12 -8 20 0 17 26 19 36 3z m382
-6 c-4 -22 -22 -20 -26 1 -2 10 3 16 13 16 10 0 15 -7 13 -17z m-1098 -69 c0
-14 -21 -19 -33 -7 -9 9 13 34 24 27 5 -3 9 -12 9 -20z m128 3 c2 -10 -3 -17
-12 -17 -10 0 -16 9 -16 21 0 24 23 21 28 -4z m132 -3 c0 -14 -21 -19 -33 -7
-9 9 13 34 24 27 5 -3 9 -12 9 -20z m128 3 c2 -10 -3 -17 -12 -17 -18 0 -29
16 -21 31 9 14 29 6 33 -14z m130 0 c2 -10 -3 -17 -12 -17 -18 0 -29 16 -21
31 9 14 29 6 33 -14z m130 0 c2 -10 -3 -17 -12 -17 -18 0 -29 16 -21 31 9 14
29 6 33 -14z m130 0 c2 -10 -3 -17 -12 -17 -18 0 -29 16 -21 31 9 14 29 6 33
-14z m128 12 c10 -17 -13 -36 -27 -22 -12 12 -4 33 11 33 5 0 12 -5 16 -11z
m132 -12 c2 -10 -3 -17 -12 -17 -18 0 -29 16 -21 31 9 14 29 6 33 -14z m127 2
c0 -7 -8 -15 -17 -17 -18 -3 -25 18 -11 32 10 10 28 1 28 -15z m-970 -69 c0
-22 -29 -18 -33 3 -3 14 1 18 15 15 10 -2 18 -10 18 -18z m130 0 c0 -22 -29
-18 -33 3 -3 14 1 18 15 15 10 -2 18 -10 18 -18z m129 12 c8 -13 -11 -35 -23
-28 -16 10 -14 36 3 36 8 0 17 -4 20 -8z m130 0 c8 -13 -11 -35 -23 -28 -16
10 -14 36 3 36 8 0 17 -4 20 -8z m129 1 c9 -9 -13 -34 -24 -27 -14 8 -11 34 4
34 8 0 17 -3 20 -7z m127 -14 c0 -24 -23 -21 -28 4 -2 10 3 17 12 17 10 0 16
-9 16 -21z m133 14 c4 -3 2 -12 -4 -20 -9 -10 -15 -10 -25 -2 -8 6 -11 15 -8
20 6 11 28 12 37 2z m125 -10 c-5 -25 -28 -28 -28 -4 0 12 6 21 16 21 9 0 14
-7 12 -17z m132 3 c0 -21 -21 -31 -30 -15 -5 7 -6 17 -4 21 9 14 34 9 34 -6z
m-843 -61 c7 -20 -2 -29 -21 -22 -9 4 -13 13 -10 22 8 19 23 19 31 0z m131 -8
c2 -10 -3 -17 -12 -17 -18 0 -29 16 -21 31 9 14 29 6 33 -14z m130 0 c2 -10
-3 -17 -12 -17 -18 0 -29 16 -21 31 9 14 29 6 33 -14z m130 0 c2 -10 -3 -17
-12 -17 -18 0 -29 16 -21 31 9 14 29 6 33 -14z m128 12 c10 -17 -13 -36 -27
-22 -12 12 -4 33 11 33 5 0 12 -5 16 -11z m132 -12 c2 -10 -3 -17 -12 -17 -18
0 -29 16 -21 31 9 14 29 6 33 -14z m127 2 c0 -7 -8 -15 -17 -17 -18 -3 -25 18
-11 32 10 10 28 1 28 -15z m-582 -64 c1 -5 -6 -11 -15 -13 -11 -2 -18 3 -18
13 0 17 30 18 33 0z m135 -2 c2 -8 -5 -13 -17 -13 -12 0 -21 6 -21 16 0 18 31
15 38 -3z m122 2 c0 -8 -7 -15 -15 -15 -8 0 -15 7 -15 15 0 8 7 15 15 15 8 0
15 -7 15 -15z m133 8 c4 -3 2 -12 -4 -20 -9 -10 -15 -10 -25 -2 -8 6 -11 15
-8 20 6 11 28 12 37 2z m127 -8 c0 -8 -7 -15 -15 -15 -8 0 -15 7 -15 15 0 8 7
15 15 15 8 0 15 -7 15 -15z m130 0 c0 -8 -9 -15 -20 -15 -20 0 -26 11 -13 23
12 13 33 7 33 -8z m-454 -56 c10 -17 -13 -36 -27 -22 -12 12 -4 33 11 33 5 0
12 -5 16 -11z m130 0 c10 -17 -13 -36 -27 -22 -12 12 -4 33 11 33 5 0 12 -5
16 -11z m130 0 c10 -17 -13 -36 -27 -22 -12 12 -4 33 11 33 5 0 12 -5 16 -11z
m130 0 c10 -17 -13 -36 -27 -22 -12 12 -4 33 11 33 5 0 12 -5 16 -11z m-70
-85 c-5 -13 -10 -14 -18 -6 -6 6 -8 18 -4 28 5 13 10 14 18 6 6 -6 8 -18 4
-28z"/>
<path d="M1416 4310 c-95 -37 -146 -110 -146 -210 0 -130 95 -224 225 -223 90
1 148 34 200 118 25 40 27 157 3 201 -27 50 -88 102 -139 118 -61 20 -83 20
-143 -4z m138 -79 c31 -12 74 -69 82 -108 9 -45 -12 -97 -52 -133 -62 -54
-172 -37 -214 33 -34 55 -22 148 24 186 43 36 101 44 160 22z"/>
<path d="M3210 4226 c-5 -5 -10 -23 -10 -39 0 -24 -3 -28 -20 -24 -13 3 -18 1
-13 -6 55 -92 136 -209 148 -213 8 -4 15 -16 15 -29 0 -27 22 -48 43 -39 20 7
32 -13 16 -32 -15 -18 -3 -32 13 -16 7 7 22 12 34 12 12 0 33 9 48 21 24 18
29 19 44 7 25 -21 71 -22 92 -3 20 18 40 13 40 -11 0 -8 6 -14 13 -14 22 0 92
-37 141 -75 l47 -35 34 27 c19 16 35 33 35 38 0 9 -164 122 -192 134 -5 1 -16
-5 -23 -15 -13 -16 -16 -17 -24 -4 -7 9 -6 19 2 28 15 19 -18 44 -49 36 -18
-5 -23 -1 -26 18 -2 14 -15 28 -33 37 -16 8 -32 18 -35 22 -3 4 -52 39 -110
78 -96 66 -105 70 -112 51 -10 -26 -28 -26 -28 0 0 11 5 20 12 20 8 0 6 6 -5
17 -19 19 -81 25 -97 9z m60 -112 c0 -8 -9 -14 -20 -14 -19 0 -27 19 -14 33
10 9 34 -4 34 -19z m125 5 c0 -7 -8 -15 -17 -17 -18 -3 -25 18 -11 32 10 10
28 1 28 -15z m-65 -62 c0 -19 -10 -27 -25 -20 -17 6 -8 33 11 33 8 0 14 -6 14
-13z m130 -1 c0 -8 -4 -17 -8 -20 -13 -8 -35 11 -28 23 10 16 36 14 36 -3z
m-65 -67 c0 -7 -8 -15 -17 -17 -18 -3 -25 18 -11 32 10 10 28 1 28 -15z m130
0 c0 -7 -8 -15 -17 -17 -18 -3 -25 18 -11 32 10 10 28 1 28 -15z m-65 -63 c0
-21 -21 -31 -30 -15 -5 7 -6 17 -4 21 9 14 34 9 34 -6z m130 0 c0 -21 -21 -31
-30 -15 -5 7 -6 17 -4 21 9 14 34 9 34 -6z m190 -66 c0 -11 -7 -20 -15 -20
-15 0 -21 21 -8 33 12 13 23 7 23 -13z m70 -65 c0 -8 -9 -15 -20 -15 -20 0
-26 11 -13 23 12 13 33 7 33 -8z"/>
<path d="M4323 4023 c-13 -8 -23 -24 -23 -34 0 -12 -9 -19 -27 -21 -22 -2 -29
-9 -33 -33 -4 -22 -11 -30 -25 -28 -11 1 -27 -3 -37 -8 -14 -8 -16 -14 -8 -29
12 -22 -1 -34 -28 -26 -12 4 -26 -1 -37 -14 -10 -11 -13 -20 -7 -20 7 0 12 -7
12 -15 0 -8 -4 -15 -10 -15 -15 0 -12 -21 7 -42 15 -17 17 -17 35 -1 13 12 22
13 29 6 14 -14 3 -33 -17 -33 -9 0 5 -25 39 -67 72 -92 159 -211 182 -250 11
-18 27 -33 37 -33 21 0 29 -12 18 -30 -5 -8 -2 -22 7 -37 12 -19 18 -21 30
-12 10 9 17 9 25 1 8 -8 7 -13 -5 -18 -9 -3 -17 -10 -17 -15 0 -5 22 -46 50
-93 48 -82 95 -126 134 -126 19 0 21 21 4 39 -11 10 -10 15 3 24 22 17 35 45
43 92 4 22 14 71 23 108 14 58 14 72 2 93 -12 23 -11 28 2 38 9 6 18 30 21 54
5 37 4 42 -13 42 -11 0 -19 7 -19 16 0 12 6 15 24 10 22 -5 23 -3 30 67 12
118 15 140 21 184 4 24 2 44 -5 48 -7 4 -7 12 1 26 18 34 5 50 -31 37 -42 -14
-213 -6 -234 11 -14 12 -19 11 -30 -4 -15 -21 -38 -12 -34 13 2 10 -9 23 -28
32 -17 9 -44 30 -60 47 -27 30 -30 31 -51 16z m42 -103 c0 -22 -29 -18 -33 3
-3 14 1 18 15 15 10 -2 18 -10 18 -18z m-65 -66 c0 -8 -7 -14 -15 -14 -15 0
-21 21 -9 33 10 9 24 -2 24 -19z m129 12 c9 -10 9 -16 1 -21 -17 -11 -40 3
-34 20 8 19 18 19 33 1z m131 -12 c0 -14 -21 -19 -33 -7 -9 9 13 34 24 27 5
-3 9 -12 9 -20z m131 -7 c-5 -5 -17 -7 -26 -3 -14 5 -15 9 -5 21 10 12 16 13
27 4 9 -8 10 -16 4 -22z m-451 -52 c0 -8 -9 -15 -20 -15 -20 0 -26 11 -13 23
12 13 33 7 33 -8z m128 -2 c2 -8 -5 -13 -17 -13 -12 0 -21 6 -21 16 0 18 31
15 38 -3z m130 -1 c2 -7 -6 -12 -17 -12 -21 0 -27 11 -14 24 9 9 26 2 31 -12z
m130 1 c2 -8 -5 -13 -17 -13 -12 0 -21 6 -21 16 0 18 31 15 38 -3z m125 2 c1
-5 -6 -11 -15 -13 -11 -2 -18 3 -18 13 0 17 30 18 33 0z m-453 -71 c0 -8 -7
-14 -15 -14 -15 0 -21 21 -9 33 10 9 24 -2 24 -19z m128 3 c2 -10 -3 -17 -12
-17 -18 0 -29 16 -21 31 9 14 29 6 33 -14z m132 3 c0 -11 -7 -20 -15 -20 -8 0
-15 9 -15 20 0 11 7 20 15 20 8 0 15 -9 15 -20z m128 -3 c2 -10 -3 -17 -12
-17 -18 0 -29 16 -21 31 9 14 29 6 33 -14z m-196 -79 c-16 -16 -35 3 -26 26 6
16 8 16 22 2 13 -12 14 -18 4 -28z m-252 18 c0 -21 -21 -31 -30 -15 -5 7 -6
17 -4 21 9 14 34 9 34 -6z m125 -6 c0 -22 -29 -18 -33 3 -3 14 1 18 15 15 10
-2 18 -10 18 -18z m260 0 c0 -22 -29 -18 -33 3 -3 14 1 18 15 15 10 -2 18 -10
18 -18z m129 12 c8 -13 -11 -35 -23 -28 -16 10 -14 36 3 36 8 0 17 -4 20 -8z
m-454 -78 c0 -8 -7 -14 -15 -14 -15 0 -21 21 -9 33 10 9 24 -2 24 -19z m128 3
c2 -10 -3 -17 -12 -17 -18 0 -29 16 -21 31 9 14 29 6 33 -14z m132 -3 c0 -8
-7 -14 -15 -14 -15 0 -21 21 -9 33 10 9 24 -2 24 -19z m130 0 c0 -17 -26 -19
-36 -3 -7 12 15 31 28 23 4 -3 8 -12 8 -20z m-327 -59 c1 -5 -6 -11 -15 -13
-11 -2 -18 3 -18 13 0 17 30 18 33 0z m135 3 c-3 -7 -11 -13 -18 -13 -7 0 -15
6 -17 13 -3 7 4 12 17 12 13 0 20 -5 18 -12z m132 -3 c0 -8 -9 -15 -20 -15
-11 0 -20 7 -20 15 0 8 9 15 20 15 11 0 20 -7 20 -15z m-197 -59 c6 -15 -19
-30 -33 -21 -13 8 -1 35 15 35 7 0 15 -6 18 -14z m127 -6 c0 -11 -7 -20 -15
-20 -8 0 -15 9 -15 20 0 11 7 20 15 20 8 0 15 -9 15 -20z m133 6 c7 -17 -22
-31 -36 -17 -5 5 -6 14 -3 20 10 16 33 14 39 -3z m-196 -62 c7 -18 -17 -38
-31 -24 -11 11 -1 40 14 40 6 0 13 -7 17 -16z m133 -9 c0 -16 -27 -27 -36 -14
-3 5 -3 16 0 24 6 17 36 9 36 -10z m-70 -65 c0 -11 -7 -20 -15 -20 -8 0 -15 9
-15 20 0 11 7 20 15 20 8 0 15 -9 15 -20z m124 14 c17 -7 10 -34 -9 -34 -17 0
-28 17 -20 30 7 12 8 12 29 4z m-56 -76 c-7 -19 -38 -22 -38 -4 0 10 9 16 21
16 12 0 19 -5 17 -12z m-68 -68 c0 -11 -7 -20 -15 -20 -8 0 -15 9 -15 20 0 11
7 20 15 20 8 0 15 -9 15 -20z m133 6 c7 -17 -22 -31 -36 -17 -5 5 -6 14 -3 20
10 16 33 14 39 -3z m-68 -67 c0 -7 -8 -15 -17 -17 -18 -3 -25 18 -11 32 10 10
28 1 28 -15z"/>
<path d="M3947 3697 l-38 -32 25 -57 c14 -32 29 -58 33 -58 10 0 9 -152 0
-167 -10 -16 19 -36 43 -28 14 4 26 0 38 -12 27 -30 126 -66 162 -58 26 6 30
4 30 -13 0 -16 20 -30 82 -61 45 -22 84 -39 85 -37 2 2 -6 22 -19 45 -14 26
-29 41 -41 41 -15 0 -18 5 -14 23 8 29 -18 66 -35 49 -7 -7 -16 -12 -20 -12
-13 0 -9 38 5 43 14 5 -16 52 -118 182 -77 99 -157 185 -171 185 -5 0 -26 -15
-47 -33z m33 -31 c0 -20 -19 -31 -32 -18 -6 6 -7 15 -4 21 10 16 36 13 36 -3z
m60 -72 c0 -8 -7 -14 -15 -14 -15 0 -21 21 -9 33 10 9 24 -2 24 -19z m70 -60
c0 -9 -7 -14 -17 -12 -25 5 -28 28 -4 28 12 0 21 -6 21 -16z m-70 -64 c0 -11
-7 -20 -15 -20 -8 0 -15 9 -15 20 0 11 7 20 15 20 8 0 15 -9 15 -20z m136 9
c3 -6 2 -15 -3 -20 -14 -14 -43 0 -36 17 6 17 29 19 39 3z m-69 -83 c-4 -9
-13 -13 -22 -10 -18 7 -20 31 -2 37 17 6 31 -9 24 -27z m130 18 c7 -18 -17
-38 -31 -24 -11 11 -1 40 14 40 6 0 13 -7 17 -16z m-59 -71 c5 -18 -28 -29
-38 -12 -5 7 -6 17 -3 22 7 12 35 5 41 -10z"/>
<path d="M3510 3665 c-62 -16 -81 -28 -123 -74 -81 -90 -76 -213 12 -301 39
-39 58 -50 103 -59 69 -15 135 -2 189 37 32 23 67 70 57 76 -45 26 -60 26 -93
-2 -85 -75 -221 -33 -241 74 -19 104 76 197 176 172 46 -12 98 -63 106 -104 9
-48 84 -77 84 -31 0 48 -23 101 -63 144 -60 65 -130 88 -207 68z"/>
<path d="M4434 1566 c-49 -49 -42 -105 18 -140 93 -56 186 68 109 145 -41 41
-83 39 -127 -5z"/>
<path d="M523 485 c-89 -38 -61 -176 36 -175 99 1 126 132 36 175 -39 18 -32
18 -72 0z"/>
</g>
</svg>
